<?xml version="1.0" encoding="UTF-8" standalone="no"?>
<!-- Created with Inkscape (http://www.inkscape.org/) -->

<svg
   version="1.1"
   id="svg2"
   width="302.36267"
   height="302.36267"
   viewBox="0 0 302.36267 302.36267"
   sodipodi:docname="ofppt-seeklogo.ai"
   xmlns:inkscape="http://www.inkscape.org/namespaces/inkscape"
   xmlns:sodipodi="http://sodipodi.sourceforge.net/DTD/sodipodi-0.dtd"
   xmlns="http://www.w3.org/2000/svg"
   xmlns:svg="http://www.w3.org/2000/svg">
  <defs
     id="defs6">
    <clipPath
       clipPathUnits="userSpaceOnUse"
       id="clipPath16">
      <path
         d="M 0,226.772 H 226.772 V 0 H 0 Z"
         id="path14" />
    </clipPath>
  </defs>
  <sodipodi:namedview
     id="namedview4"
     pagecolor="#ffffff"
     bordercolor="#000000"
     borderopacity="0.25"
     inkscape:showpageshadow="2"
     inkscape:pageopacity="0.0"
     inkscape:pagecheckerboard="0"
     inkscape:deskcolor="#d1d1d1" />
  <g
     id="g8"
     inkscape:groupmode="layer"
     inkscape:label="ofppt-seeklogo"
     transform="matrix(1.3333333,0,0,-1.3333333,0,302.36267)">
    <g
       id="g10">
      <g
         id="g12"
         clip-path="url(#clipPath16)">
        <g
           id="g18"
           transform="translate(58.5688,49.7744)">
          <path
             d="m 0,0 c -5.074,0 -9.739,3.785 -9.739,13.139 0,9.694 5.076,13.137 9.739,13.137 4.664,0 9.738,-3.443 9.738,-13.137 C 9.738,3.785 5.076,0 0,0 m 0,-1.53 c 8.274,0 14.951,5.567 14.951,14.625 0,9.777 -7.451,14.71 -14.951,14.71 -7.5,0 -14.949,-4.933 -14.949,-14.71 C -14.949,4.037 -8.276,-1.53 0,-1.53"
             style="fill:#004b93;fill-opacity:1;fill-rule:nonzero;stroke:none"
             id="path20" />
        </g>
        <g
           id="g22"
           transform="translate(96.9805,58.6611)">
          <path
             d="M 0,0 V 9.863 H -1.048 C -1.504,6.676 -2.33,5.824 -6.076,5.824 h -6.632 v 9.44 c 0,1.275 0.321,1.444 1.463,1.444 h 6.216 c 5.076,0 6.263,-0.681 6.953,-4.463 h 1.141 l -0.137,6.08 h -24.276 v -0.81 c 2.878,-0.212 3.976,-0.467 3.976,-3.828 V -4.718 c 0,-3.487 -0.55,-4.127 -3.976,-4.296 v -0.808 h 12.801 v 0.808 c -3.243,0.127 -4.161,0.639 -4.161,3.825 V 4.124 L -6.076,4.039 C -2.647,3.998 -1.549,3.571 -1.048,0 Z"
             style="fill:#004b93;fill-opacity:1;fill-rule:nonzero;stroke:none"
             id="path24" />
        </g>
        <g
           id="g26"
           transform="translate(109.748,73.9678)">
          <path
             d="m 0,0 c 0,1.401 0.504,1.443 1.874,1.443 2.006,0 8.683,-0.083 8.683,-6.164 0,-6.462 -6.13,-6.462 -7.82,-6.462 -0.954,0 -1.869,0.046 -2.737,0.128 z M -8.507,2.208 C -5.17,1.912 -4.664,1.401 -4.664,-1.62 v -18.404 c 0,-3.064 0,-4.039 -3.843,-4.296 v -0.809 H 4.296 v 0.809 C 0.774,-24.235 0,-23.598 0,-20.496 v 7.74 c 1.097,-0.085 1.961,-0.129 3.063,-0.129 4.796,0 7.722,0.767 9.688,2.51 0.777,0.684 2.787,2.422 2.787,5.738 0,5.401 -5.667,7.656 -11.975,7.656 h -12.07 z"
             style="fill:#004b93;fill-opacity:1;fill-rule:nonzero;stroke:none"
             id="path28" />
        </g>
        <g
           id="g30"
           transform="translate(135.1655,73.9678)">
          <path
             d="m 0,0 c 0,1.401 0.503,1.443 1.878,1.443 2.009,0 8.687,-0.083 8.687,-6.164 0,-6.462 -6.126,-6.462 -7.82,-6.462 -0.961,0 -1.876,0.046 -2.745,0.128 z m -8.498,2.208 c 3.335,-0.296 3.836,-0.807 3.836,-3.828 v -18.404 c 0,-3.064 0,-4.039 -3.836,-4.296 v -0.809 H 4.301 v 0.809 C 0.779,-24.235 0,-23.598 0,-20.496 v 7.74 c 1.098,-0.085 1.967,-0.129 3.065,-0.129 4.8,0 7.728,0.767 9.694,2.51 0.778,0.684 2.786,2.422 2.786,5.738 0,5.401 -5.664,7.656 -11.975,7.656 H -8.498 Z"
             style="fill:#004b93;fill-opacity:1;fill-rule:nonzero;stroke:none"
             id="path32" />
        </g>
        <g
           id="g34"
           transform="translate(172.0259,49.6475)">
          <path
             d="m 0,0 c -3.839,0.127 -4.39,0.934 -4.39,3.824 v 21.729 h 2.473 c 5.025,0 6.306,-0.767 7.27,-5.444 h 1.093 l -0.276,7.23 h -25.782 l -0.277,-7.23 h 1.097 c 1.007,4.638 2.241,5.444 7.272,5.444 h 2.464 V 4.296 C -9.056,1.148 -9.191,0.169 -13.348,0 V -0.809 H 0 Z"
             style="fill:#004b93;fill-opacity:1;fill-rule:nonzero;stroke:none"
             id="path36" />
        </g>
        <g
           id="g38"
           transform="translate(36.6831,132.9854)">
          <path
             d="M 0,0 25.568,25.567 51.137,0 25.568,-25.571 Z"
             style="fill:none;stroke:#008b45;stroke-width:0.04;stroke-linecap:butt;stroke-linejoin:miter;stroke-miterlimit:3.864;stroke-dasharray:none;stroke-opacity:1"
             id="path40" />
        </g>
        <g
           id="g42"
           transform="translate(16.6299,132.9023)">
          <path
             d="M 0,0 45.621,45.625 91.244,0 45.621,-45.622 Z"
             style="fill:none;stroke:#008b45;stroke-width:0.04;stroke-linecap:butt;stroke-linejoin:miter;stroke-miterlimit:3.864;stroke-dasharray:none;stroke-opacity:1"
             id="path44" />
        </g>
        <g
           id="g46"
           transform="translate(118.8921,132.9023)">
          <path
             d="M 0,0 45.632,45.625 91.25,0 45.632,-45.622 Z M 20.061,0.083 45.632,25.65 71.194,0.083 45.632,-25.488 Z"
             style="fill:#004b93;fill-opacity:1;fill-rule:evenodd;stroke:none"
             id="path48" />
        </g>
        <g
           id="g50"
           transform="translate(138.9526,132.9854)">
          <path
             d="M 0,0 25.571,25.567 51.134,0 25.571,-25.571 Z"
             style="fill:none;stroke:#004b93;stroke-width:0.04;stroke-linecap:butt;stroke-linejoin:miter;stroke-miterlimit:3.864;stroke-dasharray:none;stroke-opacity:1"
             id="path52" />
        </g>
        <g
           id="g54"
           transform="translate(16.6299,132.9023)">
          <path
             d="M 0,0 45.621,45.625 91.244,0 45.621,-45.622 Z M 20.053,0.083 45.621,25.65 71.19,0.083 45.621,-25.488 Z"
             style="fill:#008b45;fill-opacity:1;fill-rule:evenodd;stroke:none"
             id="path56" />
        </g>
        <g
           id="g58"
           transform="translate(138.9526,152.9697)">
          <path
             d="m 0,0 -25.571,25.558 -45.624,-45.625 10.005,-9.985 v -0.005 l 35.619,35.64 15.599,-15.596 z"
             style="fill:#a3a4a6;fill-opacity:1;fill-rule:nonzero;stroke:none"
             id="path60" />
        </g>
        <g
           id="g62"
           transform="translate(118.8921,132.9023)">
          <path
             d="M 0,0 45.632,45.625 91.25,0 45.632,-45.622 Z"
             style="fill:none;stroke:#004b93;stroke-width:0.04;stroke-linecap:butt;stroke-linejoin:miter;stroke-miterlimit:3.864;stroke-dasharray:none;stroke-opacity:1"
             id="path64" />
        </g>
        <g
           id="g66"
           transform="translate(87.7417,112.7773)">
          <path
             d="m 0,0 25.502,-25.497 45.625,45.635 -9.999,9.977 v 0.011 L 25.502,-5.517 9.995,9.994 Z"
             style="fill:#a3a4a6;fill-opacity:1;fill-rule:nonzero;stroke:none"
             id="path68" />
        </g>
      </g>
    </g>
  </g>
</svg>
